<?xml version="1.0" encoding="UTF-8"?>
<svg width="566px" height="152px" viewBox="0 0 566 152" version="1.1" xmlns="http://www.w3.org/2000/svg" xmlns:xlink="http://www.w3.org/1999/xlink">
    <!-- Generator: Sketch 42 (36781) - http://www.bohemiancoding.com/sketch -->
    <title>Group 5</title>
    <desc>Created with Sketch.</desc>
    <defs></defs>
    <g id="Page-1" stroke="none" stroke-width="1" fill="none" fill-rule="evenodd">
        <g id="Android-Copy" transform="translate(-103.000000, -111.000000)" fill="#FFFFFF">
            <g id="Group-2" transform="translate(103.000000, 111.000000)">
                <g id="Group-3">
                    <g id="Group-4">
                        <g id="Group-5">
                            <path d="M367.2,56.16 L367.2,94.56 C367.2,100.240028 369.039982,104.739983 372.72,108.06 C376.400018,111.380017 381.23997,113.04 387.24,113.04 C393.24003,113.04 397.859984,111.320017 401.1,107.88 C404.340016,104.439983 405.96,100.080026 405.96,94.8 L405.96,86.28 L396.48,86.28 L394.56,81 L411.12,81 L411.12,117 L407.04,117 L405.84,110.4 C401.91998,115.600026 395.680043,118.2 387.12,118.2 C380.079965,118.2 374.100025,116.20002 369.18,112.2 C364.259975,108.19998 361.8,102.24004 361.8,94.32 L361.8,56.64 C361.8,46.3999488 365.279965,39.1600212 372.24,34.92 C375.840018,32.91999 380.119975,31.92 385.08,31.92 C391.240031,31.92 396.919974,33.2399868 402.12,35.88 L400.56,39.72 C395.999977,37.7999904 391.560022,36.8000004 387.24,36.72 C373.879933,36.72 367.2,43.1999352 367.2,56.16 Z M427.9,33 L433.3,33 L433.3,117 L427.9,117 L427.9,33 Z M452.96,56.88 L458.36,56.88 L458.36,117 L452.96,117 L452.96,56.88 Z M452.36,35.04 C452.36,34.1599956 452.699997,33.4000032 453.38,32.76 C454.060003,32.1199968 454.839996,31.8 455.72,31.8 C456.600004,31.8 457.359997,32.1199968 458,32.76 C458.640003,33.4000032 458.96,34.1599956 458.96,35.04 C458.96,35.9200044 458.640003,36.6999966 458,37.38 C457.359997,38.0600034 456.600004,38.4 455.72,38.4 C454.839996,38.4 454.060003,38.0600034 453.38,37.38 C452.699997,36.6999966 452.36,35.9200044 452.36,35.04 Z M491.26,55.92 C498.140034,55.92 503.739978,57.2799864 508.06,60 L508.06,33 L513.46,33 L513.46,117 C506.579966,117.960005 500.220029,118.44 494.38,118.44 C488.539971,118.44 483.260024,117.240012 478.54,114.84 C472.299969,111.639984 469.18,106.08004 469.18,98.16 L469.18,75.48 C469.18,67.079958 472.579966,61.3200156 479.38,58.2 C482.740017,56.6799924 486.699977,55.92 491.26,55.92 Z M508.06,64.8 C503.179976,62.1599868 497.460033,60.84 490.9,60.84 C489.699994,60.84 488.500006,60.8799996 487.3,60.96 C483.699982,61.2800016 480.660012,62.7199872 478.18,65.28 C475.699988,67.8400128 474.46,71.3599776 474.46,75.84 L474.46,98.28 C474.46,103.160024 476.179983,106.879987 479.62,109.44 C483.140018,112.080013 487.419975,113.4 492.46,113.4 C497.500025,113.4 502.699973,113.000004 508.06,112.2 L508.06,64.8 Z M562.16,112.8 C555.999969,116.560019 549.560034,118.44 542.84,118.44 C528.91993,118.44 521.96,112.600058 521.96,100.92 L521.96,76.32 C521.96,69.8399676 523.97998,64.800018 528.02,61.2 C532.06002,57.599982 537.399967,55.8 544.04,55.8 C550.680033,55.8 555.859981,57.5799822 559.58,61.14 C563.300019,64.7000178 565.16,69.6399684 565.16,75.96 L565.16,90.36 L527.36,92.4 L527.36,101.04 C527.36,105.600023 528.839985,108.85999 531.8,110.82 C534.760015,112.78001 538.119981,113.76 541.88,113.76 C547.640029,113.76 553.679968,112.040017 560,108.6 L562.16,112.8 Z M527.36,76.32 L527.36,87.12 L559.76,85.44 L559.76,75.36 C559.76,69.9999732 558.120016,66.1800114 554.84,63.9 C551.559984,61.6199886 547.740022,60.48 543.38,60.48 C539.019978,60.48 535.260016,61.7599872 532.1,64.32 C528.939984,66.8800128 527.36,70.8799728 527.36,76.32 Z" id="Glide"></path>
                            <path d="M181.48,117 L168.28,117 L168.28,46.32 L151,46.32 L151,33 L199.24,33 L199.24,46.32 L181.48,46.32 L181.48,117 Z M243.5,81.24 L243.5,117 C235.179958,117.800004 228.540025,118.2 223.58,118.2 C221.339989,118.2 219.460008,118.120001 217.94,117.96 C204.819934,116.519993 197.940003,110.000058 197.3,98.4 L197.3,86.76 C197.3,78.8399604 200.059972,73.5200136 205.58,70.8 C207.900012,69.5199936 210.539985,68.88 213.5,68.88 C213.980002,68.88 214.419998,68.9199996 214.82,69 C218.340018,69.1600008 221.379987,69.5799966 223.94,70.26 C226.500013,70.9400034 228.619992,71.7599952 230.3,72.72 C230.3,67.5999744 226.020043,65.04 217.46,65.04 L218.54,55.92 C221.580015,55.92 224.319988,56.0999982 226.76,56.46 C229.200012,56.8200018 231.259992,57.4199958 232.94,58.26 C234.620008,59.1000042 236.099994,59.9599956 237.38,60.84 C238.660006,61.7200044 239.659996,62.8799928 240.38,64.32 C241.100004,65.7600072 241.699998,67.0199946 242.18,68.1 C242.660002,69.1800054 242.979999,70.6399908 243.14,72.48 C243.300001,74.3200092 243.4,75.7599948 243.44,76.8 C243.48,77.8400052 243.5,79.3199904 243.5,81.24 Z M230.3,105.36 L230.3,86.76 C229.019994,85.8799956 227.36001,85.0600038 225.32,84.3 C223.27999,83.5399962 221.100012,82.960002 218.78,82.56 C218.139997,82.4799996 217.500003,82.44 216.86,82.44 C215.419993,82.44 214.140006,82.7599968 213.02,83.4 C211.419992,84.3600048 210.62,86.039988 210.62,88.44 L210.62,95.04 C210.62,102.400037 214.859958,106.08 223.34,106.08 C225.42001,106.08 227.739987,105.840002 230.3,105.36 Z M252.24,101.76 L265.44,100.44 C265.44,101.880007 266.179993,103.239994 267.66,104.52 C269.140007,105.800006 271.399985,106.44 274.44,106.44 C277.080013,106.44 279.119993,105.780007 280.56,104.46 C282.000007,103.139993 282.72,101.600009 282.72,99.84 C282.72,97.5199884 281.780009,95.660007 279.9,94.26 C278.019991,92.859993 275.720014,91.7400042 273,90.9 C270.279986,90.0599958 267.540014,89.1000054 264.78,88.02 C262.019986,86.9399946 259.580011,85.1600124 257.46,82.68 C255.339989,80.1999876 254.080002,77.0400192 253.68,73.2 C253.6,72.7199976 253.56,72.2400024 253.56,71.76 C253.56,67.8399804 255.119984,64.2400164 258.24,60.96 C261.600017,57.2799816 266.919964,55.44 274.2,55.44 C276.760013,55.44 279.159989,55.739997 281.4,56.34 C283.640011,56.940003 285.239995,57.5199972 286.2,58.08 L287.64,58.92 L283.8,71.16 C281.959991,69.3199908 278.760023,68.4 274.2,68.4 C271.959989,68.4 270.300005,68.7199968 269.22,69.36 C268.139995,70.0000032 267.659999,70.6999962 267.78,71.46 C267.900001,72.2200038 267.96,72.8799972 267.96,73.44 C268.200001,74.640006 269.379989,75.739995 271.5,76.74 C273.620011,77.740005 276.039986,78.7199952 278.76,79.68 C281.480014,80.6400048 284.199986,81.8399928 286.92,83.28 C289.640014,84.7200072 291.939991,86.8799856 293.82,89.76 C295.700009,92.6400144 296.64,96.07998 296.64,100.08 C296.64,105.280026 294.760019,109.699982 291,113.34 C287.239981,116.980018 281.720036,118.8 274.44,118.8 C267.639966,118.8 262.28002,117.160016 258.36,113.88 C254.43998,110.599984 252.400001,106.560024 252.24,101.76 Z M356.86,117 L340.3,117 L322.3,86.52 L320.62,88.2 L320.62,117 L307.42,117 L307.42,33 L320.62,33 L320.62,71.16 L338.5,54.6 L348.22,63.84 L332.5,77.16 C344.180058,96.4400964 352.299977,109.719964 356.86,117 Z" id="Task"></path>
                            <g id="Objects" fill-rule="nonzero">
                                <g id="Group">
                                    <g id="Shape">
                                        <g>
                                            <polygon points="22.5435294 113.957637 0 77.5003716 34.6823529 77.5003716 58.8023529 113.957637"></polygon>
                                            <polygon points="47.4517647 152 32.7905882 126.638424 67.4729412 126.638424 83.8682353 152"></polygon>
                                            <polygon points="98.3717647 75.9152731 73.1482353 41.0431067 107.830588 41.0431067 133.842353 75.9152731"></polygon>
                                            <polygon points="73.0926265 41.0050569 57.9309558 62.9486292 22.6762616 113.972949 59.0278152 113.972949 91.4425978 66.292113"></polygon>
                                            <polygon points="49.8164706 0.147565961 0 77.5003716 34.6823529 77.5003716 65.5811765 27.2527499"></polygon>
                                            <polygon points="98.3717647 75.9152731 47.4517647 152 84.0258824 152 133.842353 75.9152731"></polygon>
                                            <polygon points="65.6714655 27.4057843 49.7306543 0.00820839576 84.6373215 0.00820839576 101.051765 26.7772204"></polygon>
                                        </g>
                                    </g>
                                </g>
                            </g>
                        </g>
                    </g>
                </g>
            </g>
        </g>
    </g>
</svg>